<svg data-name="Слой 1" xmlns="http://www.w3.org/2000/svg" viewBox="0 0 25.79 28.14"><defs><linearGradient id="a" x1="15.66" y1="2.19" x2="15.58" y2="30.02" gradientUnits="userSpaceOnUse"><stop offset="0" stop-color="#00ae80"/><stop offset="1" stop-color="#0092ff"/></linearGradient></defs><path d="M23.37 15.89h4.81v10.9a15.33 15.33 0 01-4.93 2.58 18.82 18.82 0 01-5.78.9 15.6 15.6 0 01-7.54-1.82 13.5 13.5 0 01-5.28-5 13.8 13.8 0 01-1.91-7.25A13.8 13.8 0 014.65 9 13.42 13.42 0 0110 4a15.78 15.78 0 017.6-1.82 16.72 16.72 0 016.2 1.08 12.32 12.32 0 014.73 3.33l-3.21 3.12a10.27 10.27 0 00-7.54-3.12 10.63 10.63 0 00-5.14 1.21 8.7 8.7 0 00-3.51 3.4 9.73 9.73 0 00-1.27 5 9.57 9.57 0 001.27 4.92 9 9 0 003.51 3.44 10.25 10.25 0 005.1 1.25 11.09 11.09 0 005.63-1.4z" transform="translate(-2.74 -2.13)" fill="url(#a)"/></svg>