<svg xmlns="http://www.w3.org/2000/svg" xmlns:xlink="http://www.w3.org/1999/xlink" width="73.986" height="74"><defs><linearGradient id="a" x1=".075" y1=".222" x2=".925" y2=".778" gradientUnits="objectBoundingBox"><stop offset="0" stop-color="#0092ff"/><stop offset="1" stop-color="#00ae80"/></linearGradient><linearGradient id="b" x1=".081" y1=".226" x2=".919" y2=".774" xlink:href="#a"/><style>.a{fill:#404040}</style></defs><path class="a" d="M13.022 57.22a6.122 6.122 0 00-2.92.737A34.1 34.1 0 0137 2.891a34.487 34.487 0 016.793.679 1.446 1.446 0 00.578-2.833 37.006 37.006 0 00-36.407 59.2 6.054 6.054 0 105.059-2.717zm2.24 8.325a3.146 3.146 0 01-2.255.925 3.206 3.206 0 01-2.255-.925 3.122 3.122 0 01-.925-2.255 3.206 3.206 0 01.925-2.255 3.146 3.146 0 012.255-.925 3.206 3.206 0 012.255.925 3.146 3.146 0 01.925 2.255 3.088 3.088 0 01-.925 2.255zm50.77-51.482a6.027 6.027 0 10-2.139 1.966 34.123 34.123 0 01-33.629 54.416 1.446 1.446 0 10-.578 2.833 37.312 37.312 0 007.3.723 37.017 37.017 0 0029.046-59.938zm-7.3-1.113a3.146 3.146 0 01-.925-2.255 3.206 3.206 0 01.925-2.255 3.146 3.146 0 012.255-.925 3.172 3.172 0 012.255 5.42 3.146 3.146 0 01-2.255.925 3 3 0 01-2.25-.91z"/><path d="M94.336 125.164a1.45 1.45 0 001.445 1.445h9.033a1.45 1.45 0 001.445-1.445v-2.8a22.507 22.507 0 005.42-2.255l1.98 1.98a1.431 1.431 0 001.026.419 1.52 1.52 0 001.026-.419l6.389-6.389a1.439 1.439 0 000-2.038l-1.98-1.98a23.1 23.1 0 002.255-5.42h2.789a1.45 1.45 0 001.445-1.445v-9.036a1.45 1.45 0 00-1.445-1.445h-2.789a21.94 21.94 0 00-2.255-5.42l1.966-1.966a1.431 1.431 0 00.419-1.026 1.493 1.493 0 00-.419-1.026l-6.386-6.389a1.439 1.439 0 00-2.038 0l-1.966 1.966a23.1 23.1 0 00-5.42-2.255v-2.775A1.45 1.45 0 00104.828 74H95.8a1.45 1.45 0 00-1.445 1.445v2.775a21.94 21.94 0 00-5.42 2.255l-1.966-1.966a1.439 1.439 0 00-2.038 0L78.538 84.9a1.431 1.431 0 00-.419 1.026 1.493 1.493 0 00.419 1.026l1.962 1.964a23.1 23.1 0 00-2.255 5.42h-2.8A1.45 1.45 0 0074 95.781v9.033a1.493 1.493 0 00.419 1.026 1.407 1.407 0 001.026.419h2.789a22.508 22.508 0 002.255 5.42l-1.98 1.98a1.439 1.439 0 000 2.038l6.388 6.388a1.431 1.431 0 001.026.419 1.493 1.493 0 001.026-.419l1.98-1.98a23.1 23.1 0 005.42 2.255v2.8zm-4.856-8.094a1.442 1.442 0 00-1.807.188l-1.763 1.763-4.35-4.35 1.763-1.763a1.442 1.442 0 00.188-1.807 19.627 19.627 0 01-2.732-6.605 1.453 1.453 0 00-1.416-1.142h-2.472v-6.142h2.486a1.453 1.453 0 001.416-1.142 19.926 19.926 0 012.732-6.605 1.442 1.442 0 00-.188-1.807l-1.749-1.749 4.35-4.35 1.749 1.749a1.442 1.442 0 001.807.188 19.627 19.627 0 016.606-2.732 1.453 1.453 0 001.142-1.416v-2.457h6.143v2.471a1.453 1.453 0 001.142 1.416 19.926 19.926 0 016.605 2.732 1.442 1.442 0 001.807-.188l1.749-1.749 4.35 4.35-1.749 1.749a1.442 1.442 0 00-.188 1.807 19.627 19.627 0 012.732 6.605 1.453 1.453 0 001.416 1.142h2.471v6.143h-2.486a1.453 1.453 0 00-1.416 1.142 19.926 19.926 0 01-2.732 6.605 1.442 1.442 0 00.188 1.807l1.763 1.763-4.35 4.35-1.763-1.763a1.442 1.442 0 00-1.807-.188 19.627 19.627 0 01-6.605 2.732 1.453 1.453 0 00-1.142 1.416v2.486h-6.144v-2.5a1.453 1.453 0 00-1.142-1.416 19.456 19.456 0 01-6.605-2.733z" transform="translate(-63.305 -63.305)" fill="url(#a)"/><path d="M197.277 185.338a11.938 11.938 0 10-11.938 11.938 11.951 11.951 0 0011.938-11.938zm-20.986 0a9.048 9.048 0 119.048 9.048 9.061 9.061 0 01-9.048-9.048z" transform="translate(-148.338 -148.338)" fill="url(#b)"/><path class="a" d="M50.311 5.464a1.52 1.52 0 001.026-.419 1.431 1.431 0 00.419-1.026 1.52 1.52 0 00-.419-1.026 1.431 1.431 0 00-1.026-.419 1.52 1.52 0 00-1.026.419 1.43 1.43 0 00-.419 1.026 1.52 1.52 0 00.419 1.026 1.431 1.431 0 001.026.419zm-26.55 63.102a1.52 1.52 0 00-1.026.419 1.407 1.407 0 00-.419 1.026 1.52 1.52 0 00.419 1.026 1.407 1.407 0 001.026.419 1.493 1.493 0 001.026-.419 1.406 1.406 0 00.419-1.026 1.493 1.493 0 00-.419-1.026 1.43 1.43 0 00-1.026-.419z"/></svg>