<svg xmlns="http://www.w3.org/2000/svg" xmlns:xlink="http://www.w3.org/1999/xlink" width="74" height="74.1"><defs><linearGradient id="a" x1="-1.172" y1="1.546" x2=".868" y2=".213" gradientUnits="objectBoundingBox"><stop offset="0" stop-color="#00ae80"/><stop offset="1" stop-color="#0092ff"/></linearGradient><linearGradient id="b" x1="-9.569" y1="7.982" x2="7.535" y2="-4.697" xlink:href="#a"/><linearGradient id="c" x1=".134" y1=".773" x2="1.899" y2="-.557" xlink:href="#a"/></defs><path d="M48.15 37.15l-11.3-11.2m-1.6-1.6l-21-21.1a7.847 7.847 0 00-11 0 7.756 7.756 0 000 11l21.1 21 1.6 1.6 11.2 11.2 1.6 1.6 1.7 1.7a1.131 1.131 0 101.6-1.6l-2.3-2.3-.4-.4-24.7-24.6 3.1-3.1 1.9 1.9a1.131 1.131 0 101.6-1.6l-1.9-1.9 3.1-3.1 12.1 12.1 12.7 12.7c.1.1.1.2.2.2l16.9 16.9-3.1 3.1-17-17.1-6.8-6.8-12-12a1.131 1.131 0 00-1.6 1.6l36 36-3.1 3.1-11-10.9a1.131 1.131 0 00-1.6 1.6l11.7 11.7a1.381 1.381 0 00.4.3l13.8 5.4a1.843 1.843 0 002.4-1 1.7 1.7 0 000-1.4l-5.4-13.9c-.1-.1-.1-.3-.3-.4l-17-17m-44.9-26.2a5.4 5.4 0 01.1-7.7 5.372 5.372 0 017.6 0l3.6 3.6-7.7 7.7zm12.1 4.3l-3.9 3.8-3-3 7.7-7.7 3 3zm53 53l-11.2-4.4 6.9-6.9z" fill="#404040"/><path d="M72.9 10.5L63.5 1a3.5 3.5 0 00-5 0L40.7 18.8a1.131 1.131 0 001.6 1.6L60.1 2.6a1.267 1.267 0 011.8 0l9.5 9.5a1.268 1.268 0 010 1.8L69 16.2l-6.1-6.1a1.217 1.217 0 00-1.6 0 1.217 1.217 0 000 1.6l6.1 6.1-2.7 2.7-2.7-2.7a1.131 1.131 0 10-1.6 1.6l2.7 2.7-2.7 2.7-2.6-2.8a1.131 1.131 0 10-1.6 1.6l2.7 2.7-2.7 2.7-6.1-6.1a1.131 1.131 0 10-1.6 1.6l6.1 6.1-2.7 2.7-2.7-2.7a1.131 1.131 0 00-1.6 1.6l2.7 2.7-2.2 2.2 1.6 1.6 23.2-23.2a3.5 3.5 0 000-5z" fill="url(#a)" transform="translate(.05 .05)"/><path d="M37.3 22.2l-2.1 2.1 1.6 1.6 2.1-2.1a1.217 1.217 0 000-1.6 1.04 1.04 0 00-1.6 0z" fill="url(#b)" transform="translate(.05 .05)"/><path d="M34.9 50.3l-2.7-2.7a1.131 1.131 0 00-1.6 1.6l2.7 2.7-2.7 2.7-6.1-6.1a1.131 1.131 0 00-1.6 1.6l6.1 6.1-2.7 2.7-2.7-2.7a1.131 1.131 0 00-1.6 1.6l2.7 2.7-2.6 2.6-2.7-2.7a1.131 1.131 0 10-1.6 1.6l2.7 2.7-2.7 2.7-6.1-6.1a1.215 1.215 0 00-1.6 0 1.217 1.217 0 000 1.6l6.1 6.1-2.3 2.3a1.268 1.268 0 01-1.8 0l-9.5-9.5a1.267 1.267 0 010-1.8l23.2-23.2-1.6-1.6L1 58.5a3.5 3.5 0 000 5l9.5 9.5a3.5 3.5 0 005 0l23.2-23.2-1.6-1.6z" fill="url(#c)" transform="translate(.05 .05)"/></svg>