<svg xmlns="http://www.w3.org/2000/svg" width="84.714" height="73.769"><defs><linearGradient id="a" x1=".128" y1="-.157" x2=".901" y2="1.405" gradientUnits="objectBoundingBox"><stop offset="0" stop-color="#0092ff"/><stop offset="1" stop-color="#00ae80"/></linearGradient></defs><g transform="translate(1.414)"><path d="M57.9 60.269l1-4.4c3.7-15.3 4.3-26.8 1.7-34.1a15.018 15.018 0 00-9.9-10 18.778 18.778 0 00-3.1-11.3 1.1 1.1 0 00-1.5-.3c-.1.1-.3.2-.3.4a57.5 57.5 0 01-5.6 8.3c-7.2-.6-10.7 3.3-13 5.9a6.892 6.892 0 01-2.4 2.1c-5.2 2.2-14.4 10.6-13.4 13.8.6 1.8 3.6 5.4 6.4 6a2.933 2.933 0 003-1c2.5-3.1 4.8-3.3 8.3-3.5a39.552 39.552 0 005.9-.7 9.484 9.484 0 01-2 5.8 41.209 41.209 0 00-4.3 6 1.1 1.1 0 101.9 1.1 38 38 0 014.2-5.7 12.46 12.46 0 002.5-7.7 14.06 14.06 0 007-3.2 1.082 1.082 0 10-1.2-1.8H43a12.675 12.675 0 01-6.9 3h-.2a31.018 31.018 0 01-6.8 1c-3.6.2-6.7.4-9.8 4.3a.959.959 0 01-.9.2c-1.8-.4-4.3-3.2-4.8-4.5 0-1.6 6.8-8.9 12.1-11.1a8.425 8.425 0 003.2-2.7c2.3-2.6 5.2-5.8 11.7-5.1a1.4 1.4 0 00.9-.3 44.64 44.64 0 005.4-7.5 18.228 18.228 0 011.7 9.2 1.165 1.165 0 00.8 1.2c7.1 2 15.6 8.5 7.5 41.8l-1.1 4.9zm-29.5 0l-.8-3.7a15.4 15.4 0 01-.1-4.3 1.061 1.061 0 00-2.1-.3 16.77 16.77 0 00.1 5l.7 3.3zm-2.1-11.9c.2-.5.4-1 .6-1.4a1.066 1.066 0 011.4-.6 1.158 1.158 0 01.6 1.4 6.943 6.943 0 00-.5 1.3 1.107 1.107 0 11-2.1-.7c0 .1 0 0 0 0zm29.8-2.9a1.13 1.13 0 01-.9-1.3c.4-2.2.6-4.4.8-6.4a1.105 1.105 0 112.2.2v.1c-.2 2-.5 4.2-.8 6.5a1.088 1.088 0 01-1.1.9z" fill="#404040"/><path d="M67.5 68.2a1.081 1.081 0 001.4.7 1.053 1.053 0 00.8-1v-.8a1.11 1.11 0 00-1.1-1.1H66v-4.8a1.11 1.11 0 00-1.1-1.1H32a1.11 1.11 0 00-1.1 1.1V66h-2.5a1.11 1.11 0 00-1.1 1.1v5.6a1.11 1.11 0 001.1 1.1h40.2a1.11 1.11 0 001.1-1.1v-.9a1.11 1.11 0 00-1.1-1.1 1.172 1.172 0 00-1.1.9h-38v-3.4zM33 62.4h30.8V66H33z" transform="translate(-5.8 -.031)" fill="url(#a)"/><circle cx="5" cy="5" r="5" transform="translate(72.3 30.669)" stroke="#0092ff" fill="none" stroke-width="2"/><path d="M0 64.3l11.8-11.8M0 52.5l11.8 11.8" fill="none" stroke-width="2" stroke="#00ae80" stroke-linecap="round"/></g></svg>